<svg width="415.097" height="312.583" viewBox="0 0 109.828 82.704" xmlns="http://www.w3.org/2000/svg"><path d="M109.632 82.508H.196V.196h109.436v82.312" fill="#fff"/><path d="M109.632 82.508H.196V.196h109.436z" fill="none" stroke="#100f0d" stroke-width=".392" stroke-miterlimit="10"/><path d="M36.194 73.954v-3.663h2.305c1.267 0 2.14-.257 2.635-.79.487-.523.725-1.175.725-1.928 0-.45-.091-.854-.275-1.23a2.21 2.21 0 00-.716-.864c-.303-.202-.661-.34-1.12-.413-.313-.064-.763-.083-1.36-.083H35v8.971zm0-7.924h2.296c.532 0 .909.028 1.101.083.313.082.56.257.753.532.184.267.285.588.285.964 0 .515-.165.919-.487 1.203-.312.294-.863.432-1.634.432h-2.314zm11.494 7.924h1.157a2.452 2.452 0 01-.276-.79c-.046-.266-.064-.918-.064-1.928v-1.469c0-.486-.018-.826-.055-1.01-.074-.303-.184-.56-.349-.753-.165-.202-.413-.367-.762-.496-.349-.137-.808-.192-1.36-.192-.56 0-1.046.073-1.477.22-.423.165-.753.376-.974.661-.23.276-.385.652-.486 1.12l1.074.147c.11-.459.303-.79.55-.964.249-.184.625-.275 1.158-.275.55 0 .973.128 1.249.376.21.175.312.487.312.946v.285c-.423.146-1.075.275-1.974.376-.432.046-.753.11-.983.165-.285.083-.55.193-.79.358a1.956 1.956 0 00-.578.643 1.79 1.79 0 00-.211.863c0 .542.193.992.578 1.332.386.349.937.523 1.653.523.432 0 .845-.073 1.221-.211a4.659 4.659 0 001.176-.744c.036.312.1.579.21.817zm-.303-2.855c0 .486-.064.854-.184 1.092a1.75 1.75 0 01-.725.762c-.33.184-.707.276-1.13.276-.44 0-.762-.101-.982-.294a.933.933 0 01-.34-.734c0-.193.055-.368.156-.515.101-.165.248-.275.441-.367.184-.073.514-.147.964-.211.799-.11 1.405-.248 1.8-.413zm3.905 2.855v-3.397c0-.46.064-.89.183-1.295.083-.248.22-.45.404-.597a1.09 1.09 0 01.652-.21c.266 0 .524.073.799.22l.395-1.01c-.395-.24-.771-.35-1.13-.35a1.23 1.23 0 00-.716.22c-.211.139-.45.45-.698.9v-.982h-.991v6.501zm5-.936a.716.716 0 01-.377-.083.396.396 0 01-.184-.22c-.046-.092-.064-.294-.064-.606v-3.81h1.102v-.846h-1.102v-2.277l-1.102.67v1.607h-.817v.845h.817v3.756c0 .66.046 1.083.138 1.294.082.202.238.377.459.505.211.129.523.193.927.193.239 0 .514-.046.827-.1l-.147-.965c-.202.018-.368.037-.478.037zm2.669.936V70.41c0-.845.174-1.405.514-1.699.34-.294.744-.45 1.203-.45.303 0 .551.065.762.202.23.129.377.313.468.524.092.23.129.569.129 1.019v3.948h1.102V69.96c0-.505-.028-.872-.064-1.065a1.998 1.998 0 00-.34-.817c-.165-.23-.413-.414-.735-.551a2.814 2.814 0 00-1.083-.211c-.9 0-1.589.348-2.066 1.065v-.928h-.992v6.501zm9.632-1.092a1.72 1.72 0 01-1.028.33c-.551 0-1.01-.193-1.368-.57-.368-.385-.57-.927-.606-1.643h4.857v-.284c0-1.075-.276-1.901-.826-2.498-.56-.588-1.258-.881-2.122-.881-.9 0-1.634.293-2.194.9-.56.596-.836 1.45-.836 2.543 0 1.056.276 1.864.836 2.452.55.596 1.304.881 2.259.881.753 0 1.359-.184 1.855-.55.477-.368.808-.882.991-1.543l-1.148-.147c-.156.459-.385.798-.67 1.01zm-2.36-4.132c.34-.34.762-.515 1.267-.515.56 0 1.01.212 1.369.634.22.275.358.68.413 1.23h-3.627c.037-.56.23-1.01.578-1.35zm6.66 5.224v-3.397c0-.46.064-.89.183-1.295.083-.248.22-.45.404-.597.184-.137.414-.21.652-.21.267 0 .524.073.8.22l.394-1.01c-.395-.24-.771-.35-1.13-.35-.266 0-.504.074-.716.22-.21.139-.45.45-.698.9v-.982h-.991v6.501zm0 0" aria-label="Partner" fill="#231f20"/><path d="M78.649 33.995c0 13.552-11.164 24.705-24.73 24.705-13.565 0-24.73-11.153-24.73-24.705 0-13.552 10.903-24.705 24.73-24.705 13.304 0 24.73 11.153 24.73 24.705" fill="#2b3a94"/><path d="M59.497 46.998c10.565 4.346 8.731-6.637 3.1-15.046-3.192-4.766-7.354-8.735-9.98-10.65-8.706-6.354-14.08-2.5-7.933 10.03 1.988 4.052 4.54 6.787 6.535 9.364 1.522 1.968 4.489 2.953 3.444 3.887-1.178 1.053-4.029-3.591-4.029-3.591-2.107-2.54-4.114-5.25-6.182-8.967-4.726-8.494-4.044-17.162 4.509-13.386 7.26 3.206 14.193 12.198 16.981 18.584 1.288 2.949 4.798 14.615-6.383 9.899" fill="#fff"/><path d="M26.642 41.319c4.648-3.096 9.055-5.095 16.554-7.572 10.538-3.48 18.47-5.82 28.2-10.712 4.356-2.19 11.915-7.098 14.616-11.366-.808 1.652-3.314 4.866-4.45 6.289C68.36 34.49 40.237 33.554 26.828 41.49" fill="#e21c29"/><path d="M33.385 29.236c4.254.033 3.837-.01 3.887.041.074 0 3.396 5.721 3.396 5.77 0 .025-.025-2.033-.025-4.606 0-.297-.818-1.164-.793-1.164 1.214 0 2.801.024 2.801.024-.595.694-.713.637-.719 1.065a303.13 303.13 0 000 6.787c.005.428.323.594.843 1.337h-3.892a687.96 687.96 0 01-3.57-6.043c.018.018-.05 2.477.024 4.458.025.655.323.867.868 1.462 0 0 .628-.017-3.05.024 1.116-.595.968-1.337.968-1.362-.04-2.737-.008-5.077-.008-6.588 0-.248-.017-.223-.785-1.164m13.357 4.185c.357-1.24.662-2.348.806-3.07.025-.125-.272-.57-.743-1.016l-.034-.07c2.272.008 4.645.02 4.645.02.62 1.511 2.033 5.746 3.099 8.347.282.687.768.817.768.817-1.933-.024-5.522-.008-5.503-.024.967-.868.843-.868.42-2.13h-3.023c-.62 1.436.193 2.11.297 2.105-.688.035-3.025 0-3.025 0 1.265-.892 1.19-1.164 1.19-1.164.348-1.236.75-2.59 1.103-3.815h1.24l-.533 1.71h2.405l-1.339-3.419-.533 1.71-1.24-.001m20.776.124c.356-1.24.661-2.348.806-3.07.025-.125-.273-.57-.744-1.016l-.033-.07c2.271.008 4.645.02 4.645.02.62 1.511 2.032 5.747 3.098 8.346.282.688.768.818.768.818-1.933-.025-5.521-.008-5.503-.025.968-.866.844-.866.422-2.13h-3.025c-.62 1.437.193 2.11.297 2.106-.688.035-3.024 0-3.024 0 1.264-.892 1.19-1.165 1.19-1.165.347-1.235.75-2.589 1.103-3.814h1.24l-.533 1.71h2.404l-1.339-3.419s-.265.855-.532 1.709h-1.24m-3.912-2.03c-.05-1.76 0-2.329 0-2.329-.77.62-.381.54-2.306.223-5.546-.915-5.968 4.263-2.95 5.424 2.533.975 3.43 1.166 3.05 2.08-.125.298-2.43 1.388-4.81-.817l.049 3.072c.297-.307 1.116-.867 1.116-.867.025 0 2.58 1.125 4.884-.05 3.546-1.808 1.776-4.734-2.008-5.895-3.149-.965-.174-3.22 2.95-.817m-9.258-20.046c0 .11-.091.201-.202.201a.203.203 0 01-.201-.201.202.202 0 01.403-.001m1.395 3.05a.25.25 0 01-.248.248.249.249 0 01-.249-.248c0-.136.112-.247.249-.247a.25.25 0 01.248.247m3.625 4.985a.249.249 0 01-.248.248.25.25 0 01-.248-.248c0-.136.104-.248.24-.248.137 0 .256.112.256.248m-5.826-3.266c0 .11-.09.201-.201.201a.202.202 0 01-.202-.201.202.202 0 01.403 0m2.169 1.145c0 .11-.09.201-.201.201a.203.203 0 01-.202-.201.202.202 0 01.403 0m-2.82-3.204a.25.25 0 01-.248.248.249.249 0 01-.248-.248.25.25 0 01.248-.248.25.25 0 01.248.248m-3.285 1.997c0 .11-.09.201-.201.201a.203.203 0 01-.202-.201c0-.11.092-.202.202-.202.11 0 .201.092.201.202m.589.402c0 .11-.09.202-.201.202a.202.202 0 01-.202-.202.202.202 0 01.403 0m.589.403c0 .11-.091.201-.202.201a.202.202 0 01-.2-.201.201.201 0 01.402-.001m-.898.775c0 .11-.092.201-.202.201a.202.202 0 01-.202-.201c0-.11.091-.202.202-.202.11 0 .202.091.202.202m-4.68 3.281a.202.202 0 01-.403 0 .202.202 0 01.403 0m.868 1.053c0 .11-.092.201-.202.201a.202.202 0 01-.201-.2.201.201 0 11.403-.001m-.69 16.997c0 .11-.091.2-.201.2a.202.202 0 01-.202-.2c0-.11.091-.202.202-.202.11 0 .2.092.2.202m.125 4.69a.249.249 0 01-.248.247.249.249 0 01-.248-.247c0-.136.112-.248.248-.248s.248.112.248.248m-2.665 2.4c0 .11-.091.2-.202.2a.203.203 0 01-.201-.2.202.202 0 01.403-.001m-3.192.976a.25.25 0 01-.248.247.249.249 0 01-.248-.247.25.25 0 01.248-.248.25.25 0 01.248.248m-.651-2.167a.25.25 0 01-.248.247.249.249 0 01-.248-.247.25.25 0 01.248-.248.25.25 0 01.248.248m-.372 1.377a.202.202 0 01-.403 0 .202.202 0 01.403 0m-2.386-1.145c0 .11-.091.2-.201.2a.203.203 0 01-.202-.2c0-.11.091-.202.202-.202.11 0 .201.091.201.201m8.336 3.871c0 .11-.083.2-.193.2-.111 0-.21-.09-.21-.2 0-.11.091-.202.202-.202.11 0 .201.091.201.202m2.51-1.843a.242.242 0 01-.24.248.256.256 0 01-.256-.248.25.25 0 01.248-.247c.137 0 .248.112.248.247m.287 2.369c0 .11-.099.201-.209.201a.203.203 0 01-.202-.201c0-.11.092-.201.202-.201.11 0 .21.09.21.2m10.319-2.259c0 .11-.091.201-.202.201a.203.203 0 01-.202-.201.203.203 0 01.404-.001m-4.804 1.704c0 .11-.09.2-.202.2a.202.202 0 01-.2-.2c0-.11.09-.202.2-.202.112 0 .202.091.202.202m12.923 2.445c0 .11-.091.202-.201.202a.203.203 0 01-.202-.202.202.202 0 01.403 0m1.053-9.52a.249.249 0 01-.247.248.25.25 0 01-.248-.248.25.25 0 01.248-.248.25.25 0 01.247.248m-1.983 1.347c0 .11-.09.201-.202.201a.203.203 0 01-.201-.201.202.202 0 01.403 0m1.953.387a.249.249 0 01-.248.248.249.249 0 01-.248-.248.25.25 0 01.248-.248.25.25 0 01.248.248m-1.953 2.399c0 .11-.09.202-.202.202a.203.203 0 01-.201-.202.202.202 0 01.403 0m5.051-5.479c0 .11-.09.201-.201.201a.202.202 0 01-.201-.201c0-.111.09-.202.2-.202.111 0 .202.091.202.202m.488 1.222a.242.242 0 01-.24.248.255.255 0 01-.254-.248c0-.135.111-.247.246-.247.137 0 .248.112.248.247m3.479 1.456a.248.248 0 01-.496 0 .25.25 0 01.248-.248c.137 0 .248.112.248.248m-3.532 2.585a.202.202 0 01-.403 0c0-.111.09-.202.2-.202.111 0 .203.091.203.202m2.23-2.105a.2.2 0 01-.2.2.202.202 0 01-.202-.2c0-.111.09-.202.201-.202.11 0 .201.09.201.202m-.41 3.25c0 .11-.09.201-.201.201a.202.202 0 01-.202-.2.202.202 0 01.403-.001m.945-5.402c0 .17-.14.31-.31.31-.17 0-.31-.14-.31-.31 0-.17.14-.31.31-.31.17 0 .31.14.31.31" fill="#fff"/><path d="M72.745 40.76l-.092.85-.845.094.852.092.093.883.093-.883.837-.108-.844-.077-.094-.851m-1.859 6.33c0 .17-.14.31-.31.31-.17 0-.31-.14-.31-.31a.31.31 0 01.62.001" fill="#fff"/><path d="M70.576 46.147l-.093.85-.844.094.851.093.094.882.093-.882.837-.108-.845-.078-.093-.851M47.768 21.518c0 .17-.14.31-.31.31-.17 0-.31-.14-.31-.31 0-.17.14-.31.31-.31.17 0 .31.14.31.31" fill="#fff"/><path d="M47.458 20.574l-.093.851-.845.093.853.093.093.882.093-.882.836-.108-.845-.078-.092-.85m11.838-6.549c0 .17-.14.31-.31.31a.31.31 0 01-.31-.31c0-.17.14-.31.31-.31.17 0 .31.14.31.31" fill="#fff"/><path d="M58.986 13.082l-.093.852-.845.092.853.093.093.882.093-.882.836-.108-.845-.077-.092-.852M45.28 52.044c0 .17-.14.31-.309.31-.17 0-.31-.14-.31-.31 0-.17.14-.31.31-.31.17 0 .31.14.31.31" fill="#fff"/><path d="M44.979 51.1l-.093.851-.845.093.852.093.093.882.093-.882.837-.108-.844-.078-.093-.851" fill="#fff"/><path d="M86.012 11.669c-3.768 11.18-18.866 19.814-31.576 28.056-7.667 4.973-15.279 10.699-20.52 15.57-1.38 1.283.282-.48-.247.061 7.313-8.42 15.726-13.436 20.374-16.593 7.863-5.341 12.334-6.687 25.897-19.182" fill="#e21c29"/><path d="M29.786 39.369c-1.354.662-2.566 1.316-3.595 1.955l.626.228c.9-.554 1.98-1.132 3.117-1.642m6.997 11.97a135.817 135.817 0 00-3.798 3.44l-.057.854c1.174-1.21 2.617-2.516 4.282-3.903" fill="#ee293d"/><path d="M59.497 46.998c10.565 4.346 8.731-6.637 3.1-15.046-3.192-4.766-7.129-8.545-9.98-10.65-3.33-2.459-3.656-2.663-3.656-2.663 7.437 3.53 14.193 12.198 16.981 18.584 1.288 2.949 4.798 14.615-6.383 9.899" fill="#fff"/></svg>