<?xml version="1.0" standalone="no"?>
<!DOCTYPE svg PUBLIC "-//W3C//DTD SVG 20010904//EN"
 "http://www.w3.org/TR/2001/REC-SVG-20010904/DTD/svg10.dtd">
<svg version="1.0" xmlns="http://www.w3.org/2000/svg"
 width="1588.000000pt" height="1588.000000pt" viewBox="0 0 1588.000000 1588.000000"
 preserveAspectRatio="xMidYMid meet">
<metadata>
Created by potrace 1.11, written by Peter Selinger 2001-2013
</metadata>
<g transform="translate(0.000000,1588.000000) scale(0.100000,-0.100000)"
fill="#000000" stroke="none">
<path d="M5359 14046 c-2 -2 -35 -6 -74 -10 -223 -20 -482 -98 -700 -208 -55
-28 -110 -56 -122 -62 -13 -6 -23 -14 -23 -18 0 -5 -4 -8 -9 -8 -6 0 -40 -21
-78 -46 -187 -128 -370 -303 -504 -484 -217 -295 -346 -618 -394 -990 -13
-100 -14 -454 -2 -490 3 -8 8 -39 11 -68 9 -80 50 -246 92 -368 56 -166 164
-374 272 -526 l33 -47 -51 -101 c-308 -614 -533 -1351 -605 -1985 -3 -27 -8
-63 -10 -80 -2 -16 -7 -64 -10 -105 -4 -41 -8 -86 -11 -100 -6 -41 -18 -346
-18 -485 0 -142 12 -468 18 -501 2 -11 7 -56 11 -100 3 -43 12 -124 20 -179 8
-55 17 -122 20 -150 13 -97 85 -452 120 -584 19 -74 35 -140 35 -147 0 -9
-559 -367 -758 -485 -15 -9 -229 -143 -476 -298 -247 -154 -453 -281 -458
-281 -4 0 -8 -4 -8 -9 0 -5 -8 -11 -17 -15 -10 -3 -30 -14 -45 -23 -163 -105
-242 -153 -249 -153 -5 0 -9 -4 -9 -10 0 -5 -4 -10 -10 -10 -5 0 -47 -24 -92
-53 -46 -28 -92 -57 -103 -64 -352 -212 -530 -374 -699 -635 -183 -281 -276
-594 -280 -943 -2 -98 1 -135 18 -265 45 -338 231 -711 477 -960 103 -104 150
-143 255 -216 235 -163 496 -263 794 -303 69 -10 394 -7 445 3 393 80 472 115
952 417 32 20 104 65 160 100 418 260 488 304 491 311 2 4 7 8 12 8 4 0 140
83 301 183 162 101 404 252 539 337 135 84 261 162 280 175 19 12 62 39 95 59
33 21 106 67 162 103 l103 65 28 -24 c362 -294 607 -471 844 -607 18 -10 78
-45 133 -76 482 -277 1077 -506 1655 -639 189 -43 506 -98 640 -111 30 -3 91
-9 135 -14 44 -5 87 -9 95 -9 8 -1 74 -5 145 -9 165 -10 528 -10 713 0 79 4
234 19 345 32 251 30 245 29 458 71 784 153 1519 454 2194 898 1149 756 2001
1864 2436 3166 32 96 65 200 73 230 68 248 89 337 120 485 37 179 81 469 91
595 4 41 8 80 10 87 18 57 27 721 12 948 -12 192 -49 505 -77 650 -5 28 -12
66 -15 85 -3 19 -21 105 -40 190 -246 1115 -820 2168 -1626 2980 -442 445
-907 793 -1466 1094 -78 42 -170 89 -205 105 -35 16 -99 45 -143 66 -455 212
-1004 380 -1540 469 -49 8 -110 18 -135 21 -25 3 -76 10 -115 15 -38 5 -97 12
-130 15 -33 3 -80 8 -105 10 -248 24 -885 25 -1030 1 -14 -3 -54 -7 -90 -10
-109 -9 -172 -17 -230 -26 -30 -5 -75 -12 -100 -15 -25 -3 -52 -8 -60 -10 -8
-2 -35 -7 -60 -10 -120 -17 -505 -106 -650 -150 -234 -72 -378 -122 -554 -191
-97 -38 -110 -41 -124 -28 -8 9 -45 39 -81 68 -296 236 -645 384 -1036 441
-46 7 -410 16 -416 11z"/>
</g>
</svg>
