<?xml version="1.0" encoding="UTF-8" standalone="no"?>
<svg width="6032px" height="1745px" viewBox="0 0 6032 1745" version="1.1" xmlns="http://www.w3.org/2000/svg" xmlns:xlink="http://www.w3.org/1999/xlink" xmlns:sketch="http://www.bohemiancoding.com/sketch/ns">
    <!-- Generator: Sketch 3.5.1 (25234) - http://www.bohemiancoding.com/sketch -->
    <title>Group</title>
    <desc>Created with Sketch.</desc>
    <defs>
        <linearGradient x1="100%" y1="80.4645116%" x2="0%" y2="21.0140628%" id="linearGradient-1">
            <stop stop-color="#409FFF" offset="0%"></stop>
            <stop stop-color="#2157CF" offset="100%"></stop>
        </linearGradient>
        <linearGradient x1="100%" y1="80.4645116%" x2="0%" y2="21.0140628%" id="linearGradient-2">
            <stop stop-color="#001CFF" stop-opacity="0" offset="0%"></stop>
            <stop stop-color="#5AEAFF" stop-opacity="0.201341712" offset="100%"></stop>
        </linearGradient>
        <radialGradient cx="33.2232386%" cy="23.353294%" fx="33.2232386%" fy="23.353294%" r="100%" id="radialGradient-3">
            <stop stop-color="#FFFFFF" offset="0%"></stop>
            <stop stop-color="#FFFFFF" offset="100%"></stop>
        </radialGradient>
    </defs>
    <g id="Page-1" stroke="none" stroke-width="1" fill="none" fill-rule="evenodd" sketch:type="MSPage">
        <g id="Group" sketch:type="MSLayerGroup" transform="translate(0.000000, -68.000000)">
            <rect id="Rectangle-17" stroke="#343434" fill="#262626" sketch:type="MSShapeGroup" x="0" y="68" width="6032" height="1745"></rect>
            <path d="M2244.47602,675.891193 C2239.64966,678.930013 2234.77868,681.387845 2229.86294,683.264763 C2224.94721,685.141681 2218.19934,686.884507 2209.61914,688.493294 L2192.45883,691.710852 C2176.37096,694.570918 2164.8415,698.056571 2157.87009,702.167916 C2146.07232,709.139326 2140.17352,719.953787 2140.17352,734.611624 C2140.17352,747.660674 2143.79323,757.089812 2151.03278,762.899321 C2158.27232,768.70883 2167.07583,771.61354 2177.44356,771.61354 C2193.88894,771.61354 2209.03813,766.787252 2222.89157,757.13453 C2236.74501,747.481808 2243.93976,729.874792 2244.47602,704.312954 L2244.47602,675.891193 Z M2198.08956,640.229926 C2212.21114,638.442385 2222.31059,636.207992 2228.38823,633.52668 C2239.29223,628.879073 2244.74415,621.639641 2244.74415,611.808165 C2244.74415,599.831639 2240.58818,591.564386 2232.27611,587.006156 C2223.96405,582.447926 2211.76426,580.168845 2195.67639,580.168845 C2177.62223,580.168845 2164.8415,584.637631 2157.33383,593.575336 C2151.9712,600.189239 2148.39618,609.12681 2146.60863,620.388319 L2072.87293,620.388319 C2074.48172,594.826481 2081.63178,573.823188 2094.32332,557.37781 C2114.52253,531.637218 2149.20031,518.767115 2198.35769,518.767115 C2230.35468,518.767115 2258.77615,525.112791 2283.62297,537.804333 C2308.4698,550.495875 2320.89302,574.448566 2320.89302,609.663126 L2320.89302,743.728038 C2320.89302,753.023252 2321.07177,764.284592 2321.42928,777.512396 C2321.96554,787.522627 2323.48493,794.315181 2325.98749,797.890263 C2328.49004,801.465345 2332.24382,804.414744 2337.24894,806.738547 L2337.24894,818 L2254.12869,818 C2251.80489,812.101114 2250.19613,806.55982 2249.30236,801.375951 C2248.40859,796.192082 2247.69358,790.293284 2247.15732,783.679382 C2236.61083,795.119645 2224.45573,804.861598 2210.69166,812.905533 C2194.24628,822.379501 2175.65614,827.116414 2154.92066,827.116414 C2128.46505,827.116414 2106.61269,819.564166 2089.36292,804.459444 C2072.11314,789.354721 2063.48839,767.949238 2063.48839,740.242351 C2063.48839,704.312775 2077.34162,678.304442 2105.04851,662.216572 C2120.24261,653.45762 2142.58654,647.20132 2172.08097,643.447484 L2198.08956,640.229926 Z M2448.25469,724.690821 C2449.86347,738.276133 2453.34913,747.92871 2458.71175,753.648842 C2468.18572,763.837826 2485.70336,768.932242 2511.2652,768.932242 C2526.28054,768.932242 2538.2122,766.697849 2547.06053,762.228996 C2555.90886,757.760144 2560.33295,751.056965 2560.33295,742.11926 C2560.33295,733.539062 2556.75793,727.014635 2549.60776,722.545782 C2542.4576,718.07693 2515.91301,710.390618 2469.9732,699.486617 C2436.90369,691.263928 2413.57663,680.985721 2399.99132,668.651687 C2386.40601,656.496408 2379.61345,638.978768 2379.61345,616.098242 C2379.61345,589.106371 2390.20447,565.913373 2411.38684,546.518552 C2432.5692,527.123731 2462.376,517.426466 2500.80813,517.426466 C2537.27397,517.426466 2566.9914,524.710587 2589.9613,539.279047 C2612.9312,553.847507 2626.11412,579.006771 2629.51045,614.757593 L2553.09345,614.757593 C2552.02092,604.926117 2549.25028,597.150429 2544.78142,591.430298 C2536.37998,581.062559 2522.07987,575.878768 2501.88065,575.878768 C2485.25652,575.878768 2473.41424,578.470664 2466.35345,583.654533 C2459.29266,588.838402 2455.76232,594.915951 2455.76232,601.887361 C2455.76232,610.646312 2459.5161,616.991988 2467.02378,620.924579 C2474.53145,625.035923 2501.07603,632.096605 2546.65833,642.106835 C2577.04653,649.256999 2599.83734,660.071461 2615.03144,674.550544 C2630.04678,689.208381 2637.55434,707.530402 2637.55434,729.517158 C2637.55434,758.475324 2626.78457,782.1152 2605.2447,800.437496 C2583.70483,818.759793 2550.41238,827.920804 2505.36634,827.920804 C2459.42653,827.920804 2425.50845,818.223538 2403.61107,798.828718 C2381.71369,779.433897 2370.76517,754.721511 2370.76517,724.690821 L2448.25469,724.690821 Z M2664.0992,582.850143 L2664.0992,528.419789 L2704.85493,528.419789 L2704.85493,446.908322 L2780.46754,446.908322 L2780.46754,528.419789 L2827.92652,528.419789 L2827.92652,582.850143 L2780.46754,582.850143 L2780.46754,737.292923 C2780.46754,749.269448 2781.98693,756.73232 2785.02575,759.681763 C2788.06457,762.631206 2797.35964,764.105905 2812.91125,764.105905 C2815.23505,764.105905 2817.69289,764.061217 2820.28482,763.97184 C2822.87675,763.882463 2825.42396,763.7484 2827.92652,763.569646 L2827.92652,820.681298 L2791.72899,822.021947 C2755.62066,823.273226 2730.95297,817.016926 2717.72516,803.25286 C2709.14496,794.493908 2704.85493,780.998175 2704.85493,762.765256 L2704.85493,582.850143 L2664.0992,582.850143 Z M3039.34689,518.90118 C3040.33003,518.990557 3042.51974,519.124621 3045.91607,519.303375 L3045.91607,597.597284 C3041.08971,597.061021 3036.79967,596.703519 3033.04584,596.524764 C3029.292,596.34601 3026.25323,596.256635 3023.92942,596.256635 C2993.18371,596.256635 2972.53792,606.266715 2961.99143,626.287175 C2956.09255,637.548684 2953.14315,654.887573 2953.14315,678.304361 L2953.14315,818 L2876.18989,818 L2876.18989,525.738491 L2949.1212,525.738491 L2949.1212,576.683157 C2960.91897,557.198959 2971.19718,543.881978 2979.95613,536.731814 C2994.25646,524.755288 3012.84661,518.767115 3035.72713,518.767115 C3037.15717,518.767115 3038.36374,518.811803 3039.34689,518.90118 L3039.34689,518.90118 Z M3273.29016,740.242351 C3285.26668,724.333235 3291.25486,701.721179 3291.25486,672.405505 C3291.25486,643.089831 3285.26668,620.522463 3273.29016,604.702724 C3261.31363,588.882985 3244.1535,580.973235 3221.80923,580.973235 C3199.46497,580.973235 3182.26014,588.882985 3170.19424,604.702724 C3158.12834,620.522463 3152.09548,643.089831 3152.09548,672.405505 C3152.09548,701.721179 3158.12834,724.333235 3170.19424,740.242351 C3182.26014,756.151467 3199.46497,764.105905 3221.80923,764.105905 C3244.1535,764.105905 3261.31363,756.151467 3273.29016,740.242351 L3273.29016,740.242351 Z M3334.42376,782.472798 C3309.75569,812.950374 3272.30727,828.188933 3222.07736,828.188933 C3171.84746,828.188933 3134.39903,812.950374 3109.73097,782.472798 C3085.0629,751.995222 3072.72905,715.306492 3072.72905,672.405505 C3072.72905,630.219535 3085.0629,593.664868 3109.73097,562.740407 C3134.39903,531.815945 3171.84746,516.353947 3222.07736,516.353947 C3272.30727,516.353947 3309.75569,531.815945 3334.42376,562.740407 C3359.09183,593.664868 3371.42568,630.219535 3371.42568,672.405505 C3371.42568,715.306492 3359.09183,751.995222 3334.42376,782.472798 L3334.42376,782.472798 Z M3612.07219,612.076294 C3601.79383,594.737146 3585.12526,586.067701 3562.06598,586.067701 C3534.35909,586.067701 3515.32207,599.205931 3504.95433,625.482786 C3499.5917,639.425606 3496.91043,657.121998 3496.91043,678.572491 C3496.91043,712.535772 3505.93738,736.399088 3523.99155,750.163154 C3534.71679,758.207089 3547.40814,762.228996 3562.06598,762.228996 C3583.33772,762.228996 3599.55941,754.006431 3610.73154,737.561052 C3621.90368,721.115674 3627.48966,699.218624 3627.48966,671.869245 C3627.48966,649.346227 3622.35055,629.415443 3612.07219,612.076294 L3612.07219,612.076294 Z M3670.79262,557.10968 C3694.47754,582.31401 3706.31983,619.315556 3706.31983,668.115428 C3706.31983,719.596612 3694.74567,758.83255 3671.59701,785.824421 C3648.44836,812.816292 3618.64156,826.312025 3582.17572,826.312025 C3558.93768,826.312025 3539.63253,820.502603 3524.25968,808.883586 C3515.85823,802.448438 3507.63567,793.063988 3499.59173,780.729954 L3499.59173,933.027695 L3423.97912,933.027695 L3423.97912,525.738491 L3497.17856,525.738491 L3497.17856,568.907393 C3505.40125,556.215851 3514.16007,546.205771 3523.45529,538.876852 C3540.43693,525.827802 3560.63584,519.303375 3584.05263,519.303375 C3618.19466,519.303375 3647.10771,531.905351 3670.79262,557.10968 L3670.79262,557.10968 Z M3971.90242,527.615399 C3986.64963,533.871793 3998.76004,543.434995 4008.23401,556.305291 C4016.27794,567.209291 4021.19361,578.425944 4022.98115,589.955584 C4024.76869,601.485224 4025.66245,620.298812 4025.66245,646.396912 L4025.66245,818 L3947.63667,818 L3947.63667,640.229926 C3947.63667,624.499564 3944.9554,611.808213 3939.59277,602.155491 C3932.62136,588.570178 3919.39376,581.777624 3899.90956,581.777624 C3879.71035,581.777624 3864.38241,588.525491 3853.9253,602.021426 C3843.46818,615.517361 3838.2397,634.777828 3838.2397,659.803403 L3838.2397,818 L3762.09083,818 L3762.09083,424.117287 L3838.2397,424.117287 L3838.2397,563.812926 C3849.32246,546.831285 3862.14787,534.989003 3876.71633,528.285724 C3891.28479,521.582445 3906.61273,518.230856 3922.7006,518.230856 C3940.75476,518.230856 3957.1552,521.359006 3971.90242,527.615399 L3971.90242,527.615399 Z M4108.78269,874.039133 L4118.43537,874.575393 C4125.94304,874.932901 4133.0931,874.664774 4139.88575,873.771004 C4146.67841,872.877233 4152.39846,870.821592 4157.04606,867.604018 C4161.51492,864.565198 4165.67089,858.219522 4169.5141,848.5668 C4173.35731,838.914078 4174.92139,833.015281 4174.20637,830.870232 L4066.95444,525.738491 L4151.9516,525.738491 L4215.76649,741.31487 L4276.0957,525.738491 L4357.33904,525.738491 L4257.05849,813.173663 C4237.75304,868.587437 4222.4698,902.9524 4211.20829,916.269581 C4199.94678,929.586762 4177.4241,936.245253 4143.63957,936.245253 C4136.84692,936.245253 4131.395,936.200565 4127.28365,936.111188 C4123.17231,936.021811 4117.00538,935.708996 4108.78269,935.172734 L4108.78269,874.039133 Z M4461.90967,724.690821 C4463.51846,738.276133 4467.00411,747.92871 4472.36674,753.648842 C4481.8407,763.837826 4499.35834,768.932242 4524.92018,768.932242 C4539.93553,768.932242 4551.86719,766.697849 4560.71551,762.228996 C4569.56384,757.760144 4573.98794,751.056965 4573.98794,742.11926 C4573.98794,733.539062 4570.41291,727.014635 4563.26275,722.545782 C4556.11258,718.07693 4529.568,710.390618 4483.62819,699.486617 C4450.55868,691.263928 4427.23162,680.985721 4413.64631,668.651687 C4400.06099,656.496408 4393.26844,638.978768 4393.26844,616.098242 C4393.26844,589.106371 4403.85946,565.913373 4425.04182,546.518552 C4446.22418,527.123731 4476.03099,517.426466 4514.46312,517.426466 C4550.92896,517.426466 4580.64638,524.710587 4603.61629,539.279047 C4626.58619,553.847507 4639.76911,579.006771 4643.16544,614.757593 L4566.74844,614.757593 C4565.67591,604.926117 4562.90526,597.150429 4558.43641,591.430298 C4550.03497,581.062559 4535.73485,575.878768 4515.53564,575.878768 C4498.91151,575.878768 4487.06922,578.470664 4480.00844,583.654533 C4472.94765,588.838402 4469.41731,594.915951 4469.41731,601.887361 C4469.41731,610.646312 4473.17109,616.991988 4480.67876,620.924579 C4488.18643,625.035923 4514.73102,632.096605 4560.31332,642.106835 C4590.70152,649.256999 4613.49233,660.071461 4628.68642,674.550544 C4643.70177,689.208381 4651.20933,707.530402 4651.20933,729.517158 C4651.20933,758.475324 4640.43956,782.1152 4618.89969,800.437496 C4597.35982,818.759793 4564.06736,827.920804 4519.02133,827.920804 C4473.08152,827.920804 4439.16344,818.223538 4417.26606,798.828718 C4395.36868,779.433897 4384.42015,754.721511 4384.42015,724.690821 L4461.90967,724.690821 Z M4786.34676,490.881613 L4708.85724,490.881613 L4708.85724,420.363469 L4786.34676,420.363469 L4786.34676,490.881613 Z M4708.85724,525.738491 L4786.34676,525.738491 L4786.34676,818 L4708.85724,818 L4708.85724,525.738491 Z M5034.90311,630.577252 C5033.47308,619.673252 5029.80867,609.841923 5023.90979,601.082972 C5015.32959,589.2852 5002.01261,583.386403 4983.95844,583.386403 C4958.21785,583.386403 4940.61084,596.16713 4931.13687,621.728968 C4926.13175,635.31428 4923.62923,653.368175 4923.62923,675.891193 C4923.62923,697.341686 4926.13175,714.591199 4931.13687,727.640249 C4940.25333,751.950808 4957.41346,764.105905 4982.61779,764.105905 C5000.4932,764.105905 5013.18456,759.279617 5020.69223,749.626895 C5028.1999,739.974173 5032.75806,727.461573 5034.36685,712.088719 L5112.39263,712.088719 C5110.60509,735.326753 5102.20377,757.313179 5087.18843,778.048656 C5063.23537,811.475675 5027.75322,828.188933 4980.74089,828.188933 C4933.72855,828.188933 4899.14015,814.246322 4876.97464,786.360681 C4854.80913,758.475039 4843.72654,722.277875 4843.72654,677.768101 C4843.72654,627.538196 4855.97102,588.481009 4880.46033,560.595368 C4904.94964,532.709727 4938.73366,518.767115 4981.8134,518.767115 C5018.458,518.767115 5048.44355,526.989681 5071.77096,543.435059 C5095.09837,559.880437 5108.90692,588.927545 5113.19702,630.577252 L5034.90311,630.577252 Z M5225.27529,724.690821 C5226.88407,738.276133 5230.36973,747.92871 5235.73235,753.648842 C5245.20632,763.837826 5262.72396,768.932242 5288.28579,768.932242 C5303.30114,768.932242 5315.2328,766.697849 5324.08113,762.228996 C5332.92945,757.760144 5337.35355,751.056965 5337.35355,742.11926 C5337.35355,733.539062 5333.77852,727.014635 5326.62836,722.545782 C5319.4782,718.07693 5292.93361,710.390618 5246.9938,699.486617 C5213.92429,691.263928 5190.59723,680.985721 5177.01192,668.651687 C5163.4266,656.496408 5156.63405,638.978768 5156.63405,616.098242 C5156.63405,589.106371 5167.22507,565.913373 5188.40743,546.518552 C5209.5898,527.123731 5239.3966,517.426466 5277.82873,517.426466 C5314.29457,517.426466 5344.01199,524.710587 5366.9819,539.279047 C5389.9518,553.847507 5403.13472,579.006771 5406.53105,614.757593 L5330.11405,614.757593 C5329.04152,604.926117 5326.27088,597.150429 5321.80202,591.430298 C5313.40058,581.062559 5299.10047,575.878768 5278.90125,575.878768 C5262.27712,575.878768 5250.43484,578.470664 5243.37405,583.654533 C5236.31326,588.838402 5232.78292,594.915951 5232.78292,601.887361 C5232.78292,610.646312 5236.5367,616.991988 5244.04437,620.924579 C5251.55205,625.035923 5278.09663,632.096605 5323.67893,642.106835 C5354.06713,649.256999 5376.85794,660.071461 5392.05204,674.550544 C5407.06738,689.208381 5414.57494,707.530402 5414.57494,729.517158 C5414.57494,758.475324 5403.80517,782.1152 5382.2653,800.437496 C5360.72543,818.759793 5327.43297,827.920804 5282.38694,827.920804 C5236.44713,827.920804 5202.52905,818.223538 5180.63167,798.828718 C5158.73429,779.433897 5147.78577,754.721511 5147.78577,724.690821 L5225.27529,724.690821 Z" id="astrophysics" fill="#FFFFFF" sketch:type="MSShapeGroup"></path>
            <path d="M2289.1893,1155.69855 C2289.1893,1139.59066 2286.99281,1124.3067 2282.59975,1109.84621 C2278.20668,1095.38572 2271.89175,1082.75585 2263.65476,1071.95625 C2255.41778,1061.15664 2245.35049,1052.55369 2233.45262,1046.14714 C2221.55475,1039.74059 2208.1012,1036.53737 2193.09157,1036.53737 C2175.88542,1036.53737 2161.05906,1039.92364 2148.61205,1046.69627 C2136.16505,1053.46891 2125.91473,1062.7125 2117.86078,1074.42733 C2109.80684,1086.14216 2103.94951,1099.77875 2100.28862,1115.33751 C2096.62774,1130.89626 2095.16341,1147.64456 2095.89559,1165.58289 C2095.89559,1183.52122 2098.36665,1199.35431 2103.30884,1213.08263 C2108.25103,1226.81094 2115.11509,1238.43407 2123.90121,1247.95237 C2132.68733,1257.47067 2142.93765,1264.70081 2154.65248,1269.643 C2166.36731,1274.5852 2179.18021,1277.05626 2193.09157,1277.05626 C2208.46729,1277.05626 2222.1954,1273.94455 2234.27632,1267.72105 C2246.35723,1261.49755 2256.42451,1252.98612 2264.47846,1242.18651 C2272.5324,1231.3869 2278.66429,1218.574 2282.87431,1203.74742 C2287.08433,1188.92084 2289.1893,1172.90471 2289.1893,1155.69855 L2289.1893,1155.69855 Z M2289.1893,903.647937 L2322.1371,903.647937 L2322.1371,1299.02145 L2289.1893,1299.02145 L2289.1893,1249.05063 L2288.09104,1249.05063 C2283.33189,1258.56893 2277.20001,1266.89732 2269.69519,1274.03604 C2262.19038,1281.17477 2253.95351,1287.12361 2244.98435,1291.88276 C2236.01518,1296.64191 2226.77159,1300.30274 2217.25329,1302.86536 C2207.73499,1305.42798 2198.39988,1306.70927 2189.24767,1306.70927 C2166.1841,1306.70927 2146.59866,1302.8654 2130.49077,1295.17754 C2114.38288,1287.48969 2101.11237,1276.9648 2090.67885,1263.60257 C2080.24533,1250.24035 2072.64911,1234.40726 2067.88996,1216.10284 C2063.13081,1197.79842 2060.75127,1178.21298 2060.75127,1157.34594 C2060.75127,1137.57717 2063.31385,1118.54086 2068.43909,1100.23643 C2073.56433,1081.93201 2081.34359,1065.91589 2091.77711,1052.18757 C2102.21063,1038.45925 2115.38962,1027.47677 2131.31446,1019.23978 C2147.23931,1011.00279 2166.00106,1006.88436 2187.60028,1006.88436 C2207.73514,1006.88436 2227.04601,1011.36887 2245.53348,1020.33804 C2264.02094,1029.3072 2278.57274,1042.57771 2289.1893,1060.14995 L2289.1893,903.647937 Z M2629.91074,1149.65812 C2615.99938,1155.51554 2601.90519,1159.35941 2587.62774,1161.18985 C2573.35029,1163.02029 2559.07306,1164.48463 2544.79561,1165.58289 C2519.53551,1167.41333 2499.85855,1173.08762 2485.76415,1182.60592 C2471.66974,1192.12422 2464.62265,1206.58449 2464.62265,1225.98718 C2464.62265,1234.7733 2466.36154,1242.36952 2469.83938,1248.77607 C2473.31722,1255.18262 2477.89326,1260.49082 2483.56763,1264.70083 C2489.242,1268.91085 2495.83149,1272.02256 2503.3363,1274.03604 C2510.84111,1276.04953 2518.43734,1277.05626 2526.12519,1277.05626 C2539.30438,1277.05626 2552.11728,1275.40888 2564.56428,1272.11409 C2577.01129,1268.81929 2588.0853,1263.78565 2597.78664,1257.01302 C2607.48798,1250.24038 2615.26725,1241.63743 2621.12466,1231.20391 C2626.98208,1220.77039 2629.91074,1208.41509 2629.91074,1194.13764 L2629.91074,1149.65812 Z M2574.44862,1133.18423 C2580.67212,1132.45205 2588.0853,1131.3538 2596.68838,1129.88945 C2605.29146,1128.42509 2612.33856,1126.41164 2617.82988,1123.84902 C2623.32121,1121.2864 2626.70748,1116.98493 2627.98879,1110.94447 C2629.27009,1104.90401 2629.91074,1099.32124 2629.91074,1094.19601 C2629.91074,1077.35594 2624.51102,1063.53631 2613.71141,1052.7367 C2602.9118,1041.93709 2584.69917,1036.53737 2559.07299,1036.53737 C2547.72424,1036.53737 2537.29088,1037.5441 2527.77258,1039.55758 C2518.25428,1041.57107 2509.9259,1045.04886 2502.78717,1049.99105 C2495.64845,1054.93324 2489.79112,1061.52274 2485.21502,1069.75973 C2480.63891,1077.99672 2477.61873,1088.33856 2476.15437,1100.78556 L2442.65745,1100.78556 C2443.75572,1083.9455 2447.59959,1069.57674 2454.18918,1057.67887 C2460.77877,1045.781 2469.2902,1036.0798 2479.72372,1028.57499 C2490.15724,1021.07017 2502.23797,1015.57893 2515.96629,1012.10109 C2529.69461,1008.62325 2544.2464,1006.88436 2559.62212,1006.88436 C2573.89956,1006.88436 2587.35311,1008.44021 2599.98316,1011.55196 C2612.61321,1014.66371 2623.5957,1019.60583 2632.93095,1026.37847 C2642.26621,1033.1511 2649.58787,1042.21165 2654.89615,1053.5604 C2660.20443,1064.90914 2662.85853,1078.82029 2662.85853,1095.29427 L2662.85853,1250.14889 C2662.85853,1262.96199 2665.14655,1271.10733 2669.72266,1274.58517 C2674.29876,1278.06301 2683.54236,1277.23933 2697.45372,1272.11409 L2697.45372,1297.92319 C2694.8911,1298.65537 2691.13875,1299.75362 2686.19655,1301.21797 C2681.25436,1302.68233 2676.40376,1303.41449 2671.64461,1303.41449 C2666.51937,1303.41449 2661.57725,1302.86537 2656.8181,1301.7671 C2651.32678,1301.03492 2646.93378,1299.29603 2643.63899,1296.55037 C2640.34419,1293.8047 2637.69009,1290.50996 2635.6766,1286.66603 C2633.66312,1282.8221 2632.29031,1278.61215 2631.55813,1274.03604 C2630.82595,1269.45994 2630.45987,1264.60934 2630.45987,1259.4841 C2616.54851,1274.85981 2600.6239,1286.57447 2582.68557,1294.62841 C2564.74724,1302.68236 2545.34484,1306.70927 2524.4778,1306.70927 C2512.0308,1306.70927 2500.04158,1305.0619 2488.5098,1301.7671 C2476.97801,1298.47231 2466.81921,1293.34714 2458.03309,1286.39146 C2449.24696,1279.43578 2442.29139,1270.92436 2437.16615,1260.85693 C2432.04091,1250.78949 2429.47833,1238.80028 2429.47833,1224.88892 C2429.47833,1176.56525 2462.60884,1148.01078 2528.87084,1139.22466 L2574.44862,1133.18423 Z M2887.71356,1300.11971 C2883.68659,1300.85189 2878.37839,1302.13318 2871.7888,1303.96362 C2865.19921,1305.79406 2857.87755,1306.70927 2849.8236,1306.70927 C2833.34962,1306.70927 2820.81128,1302.59084 2812.2082,1294.35385 C2803.60513,1286.11686 2799.30365,1271.38202 2799.30365,1250.14889 L2799.30365,1042.02867 L2759.21717,1042.02867 L2759.21717,1014.57217 L2799.30365,1014.57217 L2799.30365,935.49747 L2832.25145,935.49747 L2832.25145,1014.57217 L2885.51704,1014.57217 L2885.51704,1042.02867 L2832.25145,1042.02867 L2832.25145,1236.96978 C2832.25145,1243.92546 2832.43449,1249.96582 2832.80058,1255.09106 C2833.16666,1260.2163 2834.26491,1264.42625 2836.09535,1267.72105 C2837.9258,1271.01584 2840.76294,1273.39538 2844.60687,1274.85974 C2848.4508,1276.32409 2853.85052,1277.05626 2860.8062,1277.05626 C2865.19926,1277.05626 2869.68378,1276.69017 2874.25988,1275.958 C2878.83599,1275.22582 2883.3205,1274.31061 2887.71356,1273.21235 L2887.71356,1300.11971 Z M3165.28506,1149.65812 C3151.3737,1155.51554 3137.27951,1159.35941 3123.00206,1161.18985 C3108.72461,1163.02029 3094.44738,1164.48463 3080.16993,1165.58289 C3054.90983,1167.41333 3035.23287,1173.08762 3021.13847,1182.60592 C3007.04406,1192.12422 2999.99697,1206.58449 2999.99697,1225.98718 C2999.99697,1234.7733 3001.73586,1242.36952 3005.2137,1248.77607 C3008.69154,1255.18262 3013.26758,1260.49082 3018.94195,1264.70083 C3024.61632,1268.91085 3031.20581,1272.02256 3038.71063,1274.03604 C3046.21544,1276.04953 3053.81166,1277.05626 3061.49952,1277.05626 C3074.6787,1277.05626 3087.4916,1275.40888 3099.93861,1272.11409 C3112.38561,1268.81929 3123.45962,1263.78565 3133.16096,1257.01302 C3142.86231,1250.24038 3150.64157,1241.63743 3156.49898,1231.20391 C3162.3564,1220.77039 3165.28506,1208.41509 3165.28506,1194.13764 L3165.28506,1149.65812 Z M3109.82294,1133.18423 C3116.04645,1132.45205 3123.45963,1131.3538 3132.0627,1129.88945 C3140.66578,1128.42509 3147.71288,1126.41164 3153.20421,1123.84902 C3158.69553,1121.2864 3162.0818,1116.98493 3163.36311,1110.94447 C3164.64442,1104.90401 3165.28506,1099.32124 3165.28506,1094.19601 C3165.28506,1077.35594 3159.88534,1063.53631 3149.08573,1052.7367 C3138.28612,1041.93709 3120.0735,1036.53737 3094.44731,1036.53737 C3083.09857,1036.53737 3072.6652,1037.5441 3063.1469,1039.55758 C3053.62861,1041.57107 3045.30022,1045.04886 3038.1615,1049.99105 C3031.02277,1054.93324 3025.16544,1061.52274 3020.58934,1069.75973 C3016.01323,1077.99672 3012.99305,1088.33856 3011.5287,1100.78556 L2978.03177,1100.78556 C2979.13004,1083.9455 2982.97391,1069.57674 2989.5635,1057.67887 C2996.15309,1045.781 3004.66452,1036.0798 3015.09804,1028.57499 C3025.53156,1021.07017 3037.6123,1015.57893 3051.34061,1012.10109 C3065.06893,1008.62325 3079.62072,1006.88436 3094.99644,1006.88436 C3109.27389,1006.88436 3122.72743,1008.44021 3135.35748,1011.55196 C3147.98753,1014.66371 3158.97002,1019.60583 3168.30528,1026.37847 C3177.64053,1033.1511 3184.96219,1042.21165 3190.27047,1053.5604 C3195.57875,1064.90914 3198.23286,1078.82029 3198.23286,1095.29427 L3198.23286,1250.14889 C3198.23286,1262.96199 3200.52087,1271.10733 3205.09698,1274.58517 C3209.67308,1278.06301 3218.91668,1277.23933 3232.82804,1272.11409 L3232.82804,1297.92319 C3230.26542,1298.65537 3226.51307,1299.75362 3221.57088,1301.21797 C3216.62868,1302.68233 3211.77808,1303.41449 3207.01893,1303.41449 C3201.8937,1303.41449 3196.95158,1302.86537 3192.19243,1301.7671 C3186.7011,1301.03492 3182.30811,1299.29603 3179.01331,1296.55037 C3175.71851,1293.8047 3173.06441,1290.50996 3171.05093,1286.66603 C3169.03744,1282.8221 3167.66463,1278.61215 3166.93245,1274.03604 C3166.20028,1269.45994 3165.83419,1264.60934 3165.83419,1259.4841 C3151.92283,1274.85981 3135.99823,1286.57447 3118.05989,1294.62841 C3100.12156,1302.68236 3080.71917,1306.70927 3059.85213,1306.70927 C3047.40512,1306.70927 3035.4159,1305.0619 3023.88412,1301.7671 C3012.35233,1298.47231 3002.19353,1293.34714 2993.40741,1286.39146 C2984.62129,1279.43578 2977.66571,1270.92436 2972.54047,1260.85693 C2967.41524,1250.78949 2964.85266,1238.80028 2964.85266,1224.88892 C2964.85266,1176.56525 2997.98316,1148.01078 3064.24516,1139.22466 L3109.82294,1133.18423 Z M3533.7239,1210.06241 C3538.84914,1234.59034 3548.09273,1251.88775 3561.45496,1261.95519 C3574.81719,1272.02262 3593.94502,1277.05626 3618.83903,1277.05626 C3630.91995,1277.05626 3641.35331,1275.59193 3650.13944,1272.66322 C3658.92556,1269.73451 3666.1557,1265.79912 3671.83007,1260.85693 C3677.50444,1255.91473 3681.80591,1250.33197 3684.73462,1244.10846 C3687.66333,1237.88496 3689.12766,1231.29547 3689.12766,1224.33979 C3689.12766,1210.42843 3684.64314,1200.08659 3675.67398,1193.31395 C3666.70481,1186.54131 3655.44776,1181.23311 3641.90249,1177.38918 C3628.35722,1173.54525 3613.7139,1170.25051 3597.9721,1167.50485 C3582.2303,1164.75918 3567.58698,1160.64075 3554.04171,1155.14942 C3540.49644,1149.6581 3529.23939,1141.78731 3520.27022,1131.53684 C3511.30105,1121.28636 3506.81654,1106.82609 3506.81654,1088.15558 C3506.81654,1064.35983 3515.51101,1044.86591 3532.90021,1029.67325 C3550.28941,1014.48058 3574.90848,1006.88436 3606.75818,1006.88436 C3637.5096,1006.88436 3662.49476,1013.74841 3681.7144,1027.47673 C3700.93405,1041.20504 3712.55718,1064.17674 3716.58415,1096.39253 L3683.08723,1096.39253 C3680.15852,1074.42722 3671.83014,1058.96022 3658.10182,1049.99105 C3644.3735,1041.02188 3627.07609,1036.53737 3606.20905,1036.53737 C3585.34201,1036.53737 3569.4174,1041.02188 3558.43475,1049.99105 C3547.45209,1058.96022 3541.96085,1070.76639 3541.96085,1085.40993 C3541.96085,1098.22302 3546.44537,1108.01574 3555.41453,1114.78838 C3564.3837,1121.56101 3575.64075,1127.05226 3589.18602,1131.26227 C3602.73129,1135.47229 3617.37461,1139.22464 3633.11641,1142.51944 C3648.85821,1145.81423 3663.50153,1150.48179 3677.0468,1156.52225 C3690.59207,1162.56271 3701.84912,1170.70805 3710.81829,1180.95853 C3719.78745,1191.209 3724.27197,1205.48624 3724.27197,1223.79066 C3724.27197,1237.33593 3721.34331,1249.32515 3715.48589,1259.75867 C3709.62848,1270.19219 3701.57465,1278.88666 3691.32418,1285.84233 C3681.0737,1292.79801 3668.90144,1298.0147 3654.80704,1301.49254 C3640.71264,1304.97038 3625.24563,1306.70927 3608.40557,1306.70927 C3591.5655,1306.70927 3576.64762,1304.23821 3563.65148,1299.29602 C3550.65534,1294.35382 3539.58133,1287.48977 3530.42912,1278.70365 C3521.27691,1269.91752 3514.13829,1259.6672 3509.01306,1247.95237 C3503.88782,1236.23754 3500.95916,1223.60768 3500.22698,1210.06241 L3533.7239,1210.06241 Z M3825.57278,1376.44877 C3829.96584,1377.18094 3834.45035,1377.91311 3839.02646,1378.64528 C3843.60257,1379.37746 3848.27012,1379.74354 3853.02927,1379.74354 C3862.18148,1379.74354 3869.68618,1376.81488 3875.5436,1370.95747 C3881.40101,1365.10005 3886.25161,1358.05296 3890.09554,1349.81597 C3893.93947,1341.57898 3897.14269,1332.97603 3899.70531,1324.00686 C3902.26793,1315.0377 3905.19659,1307.44147 3908.49139,1301.21797 L3798.11628,1014.57217 L3834.90799,1014.57217 L3926.06355,1258.93497 L4017.21911,1014.57217 L4052.91255,1014.57217 L3946.93048,1295.17754 C3940.34089,1313.11588 3934.02596,1329.22352 3927.9855,1343.50097 C3921.94504,1357.77842 3915.53859,1369.95068 3908.76595,1380.01811 C3901.99332,1390.08554 3894.48862,1397.77328 3886.25163,1403.08156 C3878.01464,1408.38985 3868.22192,1411.04395 3856.87318,1411.04395 C3851.01577,1411.04395 3845.433,1410.67787 3840.12472,1409.94569 C3834.81644,1409.21351 3829.96584,1408.2983 3825.57278,1407.20004 L3825.57278,1376.44877 Z M4160.25378,1210.06241 C4165.37902,1234.59034 4174.62262,1251.88775 4187.98484,1261.95519 C4201.34707,1272.02262 4220.4749,1277.05626 4245.36892,1277.05626 C4257.44983,1277.05626 4267.8832,1275.59193 4276.66932,1272.66322 C4285.45544,1269.73451 4292.68558,1265.79912 4298.35995,1260.85693 C4304.03432,1255.91473 4308.3358,1250.33197 4311.2645,1244.10846 C4314.19321,1237.88496 4315.65754,1231.29547 4315.65754,1224.33979 C4315.65754,1210.42843 4311.17303,1200.08659 4302.20386,1193.31395 C4293.23469,1186.54131 4281.97764,1181.23311 4268.43237,1177.38918 C4254.8871,1173.54525 4240.24378,1170.25051 4224.50198,1167.50485 C4208.76018,1164.75918 4194.11686,1160.64075 4180.57159,1155.14942 C4167.02632,1149.6581 4155.76927,1141.78731 4146.8001,1131.53684 C4137.83094,1121.28636 4133.34642,1106.82609 4133.34642,1088.15558 C4133.34642,1064.35983 4142.04089,1044.86591 4159.43009,1029.67325 C4176.81929,1014.48058 4201.43837,1006.88436 4233.28806,1006.88436 C4264.03949,1006.88436 4289.02465,1013.74841 4308.24429,1027.47673 C4327.46393,1041.20504 4339.08706,1064.17674 4343.11404,1096.39253 L4309.61711,1096.39253 C4306.68841,1074.42722 4298.36002,1058.96022 4284.6317,1049.99105 C4270.90339,1041.02188 4253.60597,1036.53737 4232.73893,1036.53737 C4211.87189,1036.53737 4195.94728,1041.02188 4184.96463,1049.99105 C4173.98198,1058.96022 4168.49073,1070.76639 4168.49073,1085.40993 C4168.49073,1098.22302 4172.97525,1108.01574 4181.94442,1114.78838 C4190.91358,1121.56101 4202.17063,1127.05226 4215.7159,1131.26227 C4229.26117,1135.47229 4243.90449,1139.22464 4259.64629,1142.51944 C4275.3881,1145.81423 4290.03141,1150.48179 4303.57668,1156.52225 C4317.12196,1162.56271 4328.37901,1170.70805 4337.34817,1180.95853 C4346.31734,1191.209 4350.80185,1205.48624 4350.80185,1223.79066 C4350.80185,1237.33593 4347.87319,1249.32515 4342.01578,1259.75867 C4336.15836,1270.19219 4328.10454,1278.88666 4317.85406,1285.84233 C4307.60359,1292.79801 4295.43133,1298.0147 4281.33692,1301.49254 C4267.24252,1304.97038 4251.77552,1306.70927 4234.93545,1306.70927 C4218.09538,1306.70927 4203.1775,1304.23821 4190.18136,1299.29602 C4177.18522,1294.35382 4166.11122,1287.48977 4156.95901,1278.70365 C4147.8068,1269.91752 4140.66818,1259.6672 4135.54294,1247.95237 C4130.4177,1236.23754 4127.48904,1223.60768 4126.75686,1210.06241 L4160.25378,1210.06241 Z M4554.24082,1300.11971 C4550.21385,1300.85189 4544.90564,1302.13318 4538.31605,1303.96362 C4531.72646,1305.79406 4524.4048,1306.70927 4516.35086,1306.70927 C4499.87688,1306.70927 4487.33854,1302.59084 4478.73546,1294.35385 C4470.13238,1286.11686 4465.83091,1271.38202 4465.83091,1250.14889 L4465.83091,1042.02867 L4425.74443,1042.02867 L4425.74443,1014.57217 L4465.83091,1014.57217 L4465.83091,935.49747 L4498.7787,935.49747 L4498.7787,1014.57217 L4552.0443,1014.57217 L4552.0443,1042.02867 L4498.7787,1042.02867 L4498.7787,1236.96978 C4498.7787,1243.92546 4498.96174,1249.96582 4499.32783,1255.09106 C4499.69392,1260.2163 4500.79217,1264.42625 4502.62261,1267.72105 C4504.45305,1271.01584 4507.2902,1273.39538 4511.13412,1274.85974 C4514.97805,1276.32409 4520.37778,1277.05626 4527.33345,1277.05626 C4531.72652,1277.05626 4536.21103,1276.69017 4540.78714,1275.958 C4545.36324,1275.22582 4549.84776,1274.31061 4554.24082,1273.21235 L4554.24082,1300.11971 Z M4851.58099,1137.02814 C4851.58099,1123.11678 4849.65906,1110.02931 4845.81513,1097.76535 C4841.9712,1085.50139 4836.29692,1074.88498 4828.7921,1065.91582 C4821.28729,1056.94665 4811.86066,1049.80803 4800.51192,1044.49975 C4789.16317,1039.19147 4776.16723,1036.53737 4761.52369,1036.53737 C4746.88016,1036.53737 4733.97573,1039.28299 4722.81004,1044.77432 C4711.64434,1050.26564 4702.12618,1057.5873 4694.25528,1066.73951 C4686.38438,1075.89172 4680.06945,1086.50813 4675.3103,1098.58905 C4670.55115,1110.66996 4667.43945,1123.48287 4665.97509,1137.02814 L4851.58099,1137.02814 Z M4665.97509,1164.48463 C4665.97509,1179.86034 4667.98855,1194.41214 4672.01552,1208.14046 C4676.0425,1221.86877 4681.99134,1233.76647 4689.86224,1243.8339 C4697.73315,1253.90133 4707.7089,1261.95515 4719.78982,1267.99561 C4731.87074,1274.03607 4745.78189,1277.05626 4761.52369,1277.05626 C4783.12291,1277.05626 4801.6101,1271.38197 4816.98581,1260.03323 C4832.36153,1248.68449 4842.61185,1232.57684 4847.73709,1211.7098 L4884.52879,1211.7098 C4880.50181,1225.25507 4875.19361,1237.79341 4868.60402,1249.3252 C4862.01443,1260.85698 4853.77756,1270.92426 4843.89318,1279.52734 C4834.00879,1288.13042 4822.29413,1294.81143 4808.74886,1299.57058 C4795.20359,1304.32973 4779.46203,1306.70927 4761.52369,1306.70927 C4738.82621,1306.70927 4719.24078,1302.8654 4702.7668,1295.17754 C4686.29282,1287.48969 4672.74775,1276.9648 4662.13119,1263.60257 C4651.51462,1250.24035 4643.64384,1234.49878 4638.5186,1216.3774 C4633.39336,1198.25603 4630.83078,1178.76211 4630.83078,1157.89507 C4630.83078,1137.02803 4633.85097,1117.4426 4639.89142,1099.13818 C4645.93188,1080.83375 4654.53483,1064.81763 4665.70053,1051.08931 C4676.86623,1037.36099 4690.50282,1026.56155 4706.61071,1018.69065 C4722.7186,1010.81975 4741.02274,1006.88436 4761.52369,1006.88436 C4800.69515,1006.88436 4831.44612,1020.3379 4853.77751,1047.2454 C4876.10891,1074.1529 4887.0914,1113.23225 4886.72531,1164.48463 L4665.97509,1164.48463 Z M5018.22826,1299.02145 L4985.28046,1299.02145 L4985.28046,1014.57217 L5018.22826,1014.57217 L5018.22826,1057.4043 L5019.32652,1057.4043 C5027.74655,1040.93033 5039.82729,1028.39199 5055.56909,1019.78891 C5071.31089,1011.18583 5088.51679,1006.88436 5107.1873,1006.88436 C5120.36648,1006.88436 5131.53201,1008.34869 5140.68422,1011.27739 C5149.83643,1014.2061 5157.61569,1018.14149 5164.02224,1023.08369 C5170.42879,1028.02588 5175.73699,1033.79169 5179.94701,1040.38128 C5184.15702,1046.97087 5187.72633,1054.10949 5190.65504,1061.79734 C5200.17334,1043.12683 5212.89472,1029.3072 5228.81957,1020.33804 C5244.74441,1011.36887 5262.95704,1006.88436 5283.45799,1006.88436 C5302.86068,1006.88436 5318.32768,1010.08758 5329.85947,1016.49413 C5341.39125,1022.90068 5350.26876,1031.32058 5356.49226,1041.7541 C5362.71577,1052.18762 5366.8342,1064.17684 5368.84769,1077.72211 C5370.86117,1091.26738 5371.8679,1105.17853 5371.8679,1119.45598 L5371.8679,1299.02145 L5338.92011,1299.02145 L5338.92011,1102.43295 C5338.92011,1081.932 5334.61863,1065.82435 5326.01556,1054.10952 C5317.41248,1042.3947 5301.39635,1036.53737 5277.96669,1036.53737 C5265.88577,1036.53737 5254.26264,1039.19147 5243.09694,1044.49975 C5231.93125,1049.80803 5222.13853,1057.95338 5213.7185,1068.93603 C5210.05761,1073.69518 5207.03743,1079.27795 5204.65785,1085.68449 C5202.27828,1092.09104 5200.35634,1098.77205 5198.89199,1105.72773 C5197.42763,1112.68341 5196.42091,1119.63899 5195.87177,1126.59467 C5195.32264,1133.55035 5195.04808,1139.9568 5195.04808,1145.81422 L5195.04808,1299.02145 L5162.10029,1299.02145 L5162.10029,1102.43295 C5162.10029,1081.932 5157.79881,1065.82435 5149.19573,1054.10952 C5140.59266,1042.3947 5124.57653,1036.53737 5101.14687,1036.53737 C5089.06595,1036.53737 5077.44282,1039.19147 5066.27712,1044.49975 C5055.11143,1049.80803 5045.31871,1057.95338 5036.89867,1068.93603 C5033.23779,1073.69518 5030.21761,1079.27795 5027.83803,1085.68449 C5025.45846,1092.09104 5023.53652,1098.77205 5022.07217,1105.72773 C5020.60781,1112.68341 5019.60108,1119.63899 5019.05195,1126.59467 C5018.50282,1133.55035 5018.22826,1139.9568 5018.22826,1145.81422 L5018.22826,1299.02145 Z" id="data-system" fill="#FFFFFF" sketch:type="MSShapeGroup"></path>
            <g id="bbb_logo" transform="translate(116.000000, 0.000000)">
                <g id="background" transform="translate(1205.123550, 920.343072) rotate(58.000000) translate(-1205.123550, -920.343072) translate(537.623550, 252.843072)" sketch:type="MSShapeGroup">
                    <circle id="Oval-12" fill="#343434" cx="667.037654" cy="667.037654" r="667.037654"></circle>
                    <circle id="Oval-12" fill="#272727" cx="667.037654" cy="667.037654" r="667.037654"></circle>
                    <path d="M95.6101108,569.347517 C145.652771,303.7612 378.855078,102.850788 658.982527,102.850788 C975.609365,102.850788 1232.28613,359.527555 1232.28613,676.154393 C1232.28613,926.317089 1072.05894,1139.05672 848.63049,1217.34737 L848.630488,1184.96317 C1054.91349,1108.05108 1201.82981,909.275244 1201.82981,676.185261 C1201.82981,376.396036 958.802621,133.368851 659.013395,133.368851 C395.157173,133.368851 175.271373,321.628609 126.350684,571.153438 C116.998684,569.954976 107.465075,569.337088 97.7871503,569.337088 C97.0606102,569.337088 96.3348835,569.34057 95.6099858,569.347519 Z M183.851649,997.080585 C251.844317,1097.54689 350.864216,1175.29843 467.154702,1216.57855 L467.154705,1184.12169 C362.693999,1144.64424 273.602718,1073.86707 211.321545,983.230882 C202.536999,988.453089 193.3623,993.087714 183.851635,997.080566 Z" id="Oval-13" fill="#A5A5A5"></path>
                </g>
                <g id="magnifying-glass" transform="translate(1007.830629, 1032.102699) rotate(58.000000) translate(-1007.830629, -1032.102699) translate(415.830629, 214.602699)" sketch:type="MSShapeGroup">
                    <circle id="Oval-10" fill="#9B9B9B" transform="translate(592.000000, 592.000000) rotate(-49.000000) translate(-592.000000, -592.000000) " cx="592" cy="592" r="419"></circle>
                    <circle id="Oval-9" fill="url(#linearGradient-1)" transform="translate(597.029188, 595.029188) rotate(-49.000000) translate(-597.029188, -595.029188) " cx="597.029188" cy="595.029188" r="300.029188"></circle>
                    <circle id="Oval-9" fill="url(#linearGradient-1)" transform="translate(597.029188, 595.029188) rotate(-49.000000) translate(-597.029188, -595.029188) " cx="597.029188" cy="595.029188" r="300.029188"></circle>
                    <circle id="Oval-9" fill="url(#linearGradient-2)" transform="translate(597.000000, 595.000000) rotate(-49.000000) translate(-597.000000, -595.000000) " cx="597" cy="595" r="260"></circle>
                    <path d="M421.269577,1026.95919 L771.269577,1026.95919 L771.269577,1459.74099 C771.269577,1556.39527 692.91343,1634.74905 596.269577,1634.74905 L596.269577,1634.74905 C499.619746,1634.74905 421.269577,1556.3997 421.269577,1459.74099 L421.269577,1026.95919 Z" id="Rectangle-9" fill="#272727"></path>
                    <g id="Group-5" transform="translate(602.360512, 1283.857398) rotate(-58.000000) translate(-602.360512, -1283.857398) translate(331.860512, 1055.857398)">
                        <g id="Group-6" transform="translate(270.510623, 212.084510) rotate(57.000000) translate(-270.510623, -212.084510) translate(196.510623, -61.915490)" fill="#9B9B9B">
                            <rect id="Rectangle-7" transform="translate(74.000000, 68.437669) rotate(91.000000) translate(-74.000000, -68.437669) " x="7" y="32.9375896" width="134" height="71.0001594"></rect>
                            <path d="M6.82121026e-13,286.830549 C6.82121026e-13,245.956578 6.82460455e-13,179.695562 6.82470721e-13,138.814747 L6.82499482e-13,154.640733 C6.82290467e-13,113.77171 33.1219425,80.6408217 74,80.6408217 L74,80.6408217 C114.869071,80.6408217 148,113.77349 148,154.640985 L148,97.2738046 C148,138.143017 148,204.412798 148,245.277373 L148,473.693758 C148,514.560061 114.878057,547.688745 74,547.688745 L74,547.688745 C33.1309285,547.688745 6.82121026e-13,514.556918 6.82121026e-13,473.681016 L6.82121026e-13,286.830549 Z" id="Rectangle-9"></path>
                        </g>
                        <g id="Group-6" transform="translate(253.057093, 260.033496) rotate(53.000000) translate(-253.057093, -260.033496) translate(187.057093, 23.033496)" fill="#878787">
                            <path d="M109.439012,4.7333754 C104.611865,3.74331792 99.6133473,3.22332122 94.4933838,3.22332122 C53.6153264,3.22332122 20.4933838,36.3542099 20.4933838,77.2232323 L20.4933838,61.3972465 C20.4933838,102.278061 20.4933838,168.539078 20.4933838,209.413048 L20.4933838,396.263515 C20.4933838,437.139417 53.6243124,470.271245 94.4933838,470.271245 C100.296077,470.271245 105.942484,469.603696 111.360048,468.341226 C77.65535,461.428491 52.3054286,431.598651 52.3054286,395.84348 L52.3054286,208.993013 C52.3054286,168.119042 52.3054286,101.858026 52.3054286,60.9772111 L52.3054286,76.8031969 C52.3054286,41.735497 76.6915012,12.3650079 109.439012,4.7333754 Z" id="Rectangle-9" transform="translate(65.926716, 236.747283) rotate(185.000000) translate(-65.926716, -236.747283) "></path>
                        </g>
                        <path d="M452.872371,63.9843924 L487.872371,63.9843924 L487.872371,149.364077 L452.872371,139.916627 L452.872371,63.9843924 Z" id="Rectangle-9" fill="#878787" transform="translate(470.372371, 106.674235) rotate(58.000000) translate(-470.372371, -106.674235) "></path>
                    </g>
                </g>
                <circle id="Oval-16" fill="#272727" sketch:type="MSShapeGroup" cx="819.5" cy="505.5" r="222.49448"></circle>
                <path d="M829.103362,645.206723 C906.480312,645.206723 969.206723,582.480312 969.206723,505.103362 C969.206723,427.726412 906.480312,365 829.103362,365 C751.726412,365 689,427.726412 689,505.103362 C689,582.480312 751.726412,645.206723 829.103362,645.206723 Z" id="Oval-20" fill="url(#radialGradient-3)" sketch:type="MSShapeGroup"></path>
                <text id="a" sketch:type="MSTextLayer" font-family="Helvetica" font-size="700" font-weight="bold" fill="#FFFFFF">
                    <tspan x="1007" y="1098">a</tspan>
                </text>
                <path d="M1180.43685,1024.80437 C1180.43685,906.403341 1113.26545,724.21252 1113.26545,724.21252 C1113.26545,724.21252 1253.06294,719.859749 1338.42335,789.654033 C1422.77443,858.623049 1452.8317,972.989096 1448.07887,1042.11715 C1443.32603,1111.24521 1400.65926,1209.65206 1338.42335,1258.18651 C1242.2534,1333.1843 1123.10892,1322.06884 1123.10892,1322.06884 C1123.10892,1322.06884 1180.43685,1143.2054 1180.43685,1024.80437 Z" id="Rectangle-10" fill-opacity="0.09" fill="#000000" sketch:type="MSShapeGroup" transform="translate(1280.912495, 1023.404464) rotate(52.000000) translate(-1280.912495, -1023.404464) "></path>
            </g>
        </g>
    </g>
</svg>